<?xml version="1.0" encoding="UTF-8" standalone="no"?>
<!-- Created with Inkscape (http://www.inkscape.org/) -->

<svg
   xmlns:dc="http://purl.org/dc/elements/1.1/"
   xmlns:cc="http://creativecommons.org/ns#"
   xmlns:rdf="http://www.w3.org/1999/02/22-rdf-syntax-ns#"
   xmlns:svg="http://www.w3.org/2000/svg"
   xmlns="http://www.w3.org/2000/svg"
   xmlns:sodipodi="http://sodipodi.sourceforge.net/DTD/sodipodi-0.dtd"
   xmlns:inkscape="http://www.inkscape.org/namespaces/inkscape"
   width="744.09448819"
   height="1052.3622047"
   id="svg2"
   version="1.1"
   inkscape:version="0.48.3.1 r9886"
   sodipodi:docname="simple-commits.svg">
  <defs
     id="defs4">
    <marker
       inkscape:stockid="Arrow1Send"
       orient="auto"
       refY="0.0"
       refX="0.0"
       id="Arrow1Send"
       style="overflow:visible;">
      <path
         id="path3776"
         d="M 0.0,0.0 L 5.0,-5.0 L -12.5,0.0 L 5.0,5.0 L 0.0,0.0 z "
         style="fill-rule:evenodd;stroke:#000000;stroke-width:1.0pt;"
         transform="scale(0.2) rotate(180) translate(6,0)" />
    </marker>
    <marker
       inkscape:stockid="Arrow1Mend"
       orient="auto"
       refY="0.0"
       refX="0.0"
       id="Arrow1Mend"
       style="overflow:visible;">
      <path
         id="path3770"
         d="M 0.0,0.0 L 5.0,-5.0 L -12.5,0.0 L 5.0,5.0 L 0.0,0.0 z "
         style="fill-rule:evenodd;stroke:#000000;stroke-width:1.0pt;"
         transform="scale(0.4) rotate(180) translate(10,0)" />
    </marker>
  </defs>
  <sodipodi:namedview
     id="base"
     pagecolor="#ffffff"
     bordercolor="#666666"
     borderopacity="1.0"
     inkscape:pageopacity="0.0"
     inkscape:pageshadow="2"
     inkscape:zoom="1.979899"
     inkscape:cx="207.937"
     inkscape:cy="991.47105"
     inkscape:document-units="px"
     inkscape:current-layer="layer1"
     showgrid="false"
     inkscape:window-width="1920"
     inkscape:window-height="1002"
     inkscape:window-x="-4"
     inkscape:window-y="-4"
     inkscape:window-maximized="1" />
  <metadata
     id="metadata7">
    <rdf:RDF>
      <cc:Work
         rdf:about="">
        <dc:format>image/svg+xml</dc:format>
        <dc:type
           rdf:resource="http://purl.org/dc/dcmitype/StillImage" />
        <dc:title></dc:title>
      </cc:Work>
    </rdf:RDF>
  </metadata>
  <g
     inkscape:label="Layer 1"
     inkscape:groupmode="layer"
     id="layer1">
    <path
       sodipodi:type="arc"
       style="fill:#000000;fill-opacity:1;fill-rule:evenodd;stroke:#000000;stroke-width:1px;stroke-linecap:butt;stroke-linejoin:miter;stroke-opacity:1"
       id="path2985"
       sodipodi:cx="114.28571"
       sodipodi:cy="149.50504"
       sodipodi:rx="40"
       sodipodi:ry="40"
       d="m 154.28571,149.50504 a 40,40 0 1 1 -79.999997,0 40,40 0 1 1 79.999997,0 z"
       transform="matrix(0.32656497,0,0,0.32656497,61.118455,48.407809)" />
    <path
       style="fill:none;stroke:#000000;stroke-width:4.9492569;stroke-linecap:butt;stroke-linejoin:miter;stroke-miterlimit:4;stroke-opacity:1;stroke-dasharray:none;marker-end:url(#Arrow1Send)"
       d="m 111.11678,97.768028 c 20.79523,0 57.36364,0 57.36364,0"
       id="path3755"
       inkscape:connector-curvature="0"
       sodipodi:nodetypes="cc" />
    <path
       transform="matrix(0.32656497,0,0,0.32656497,150.40417,48.407809)"
       d="m 154.28571,149.50504 a 40,40 0 1 1 -79.999997,0 40,40 0 1 1 79.999997,0 z"
       sodipodi:ry="40"
       sodipodi:rx="40"
       sodipodi:cy="149.50504"
       sodipodi:cx="114.28571"
       id="path4569"
       style="fill:#000000;fill-opacity:1;fill-rule:evenodd;stroke:#000000;stroke-width:1px;stroke-linecap:butt;stroke-linejoin:miter;stroke-opacity:1"
       sodipodi:type="arc" />
    <path
       sodipodi:type="arc"
       style="fill:#000000;fill-opacity:1;fill-rule:evenodd;stroke:#000000;stroke-width:1px;stroke-linecap:butt;stroke-linejoin:miter;stroke-opacity:1"
       id="path4571"
       sodipodi:cx="114.28571"
       sodipodi:cy="149.50504"
       sodipodi:rx="40"
       sodipodi:ry="40"
       d="m 154.28571,149.50504 a 40,40 0 1 1 -79.999997,0 40,40 0 1 1 79.999997,0 z"
       transform="matrix(0.32656497,0,0,0.32656497,240.04703,48.407809)" />
    <path
       sodipodi:nodetypes="cc"
       inkscape:connector-curvature="0"
       id="path4573"
       d="m 198.61678,97.768028 c 20.79523,0 57.36364,0 57.36364,0"
       style="fill:none;stroke:#000000;stroke-width:4.949;stroke-linecap:butt;stroke-linejoin:miter;stroke-miterlimit:4;stroke-opacity:1;stroke-dasharray:none;marker-end:url(#Arrow1Send)" />
    <path
       transform="matrix(0.32656497,0,0,0.32656497,240.04703,99.47924)"
       d="m 154.28571,149.50504 a 40,40 0 1 1 -79.999997,0 40,40 0 1 1 79.999997,0 z"
       sodipodi:ry="40"
       sodipodi:rx="40"
       sodipodi:cy="149.50504"
       sodipodi:cx="114.28571"
       id="path4594"
       style="fill:#000000;fill-opacity:1;fill-rule:evenodd;stroke:#000000;stroke-width:1px;stroke-linecap:butt;stroke-linejoin:miter;stroke-opacity:1"
       sodipodi:type="arc" />
    <path
       style="fill:none;stroke:#000000;stroke-width:4.949;stroke-linecap:butt;stroke-linejoin:miter;stroke-miterlimit:4;stroke-opacity:1;stroke-dasharray:none;marker-mid:none;marker-end:url(#Arrow1Send)"
       d="m 193.4629,105.83742 c 23.08027,13.32539 63.66695,36.7581 63.66695,36.7581"
       id="path4596"
       inkscape:connector-curvature="0"
       sodipodi:nodetypes="cc" />
    <path
       transform="matrix(0.32656497,0,0,0.32656497,331.11846,48.407809)"
       d="m 154.28571,149.50504 a 40,40 0 1 1 -79.999997,0 40,40 0 1 1 79.999997,0 z"
       sodipodi:ry="40"
       sodipodi:rx="40"
       sodipodi:cy="149.50504"
       sodipodi:cx="114.28571"
       id="path4598"
       style="fill:#000000;fill-opacity:1;fill-rule:evenodd;stroke:#000000;stroke-width:1px;stroke-linecap:butt;stroke-linejoin:miter;stroke-opacity:1"
       sodipodi:type="arc" />
    <path
       style="fill:none;stroke:#000000;stroke-width:4.9492569;stroke-linecap:butt;stroke-linejoin:miter;stroke-miterlimit:4;stroke-opacity:1;stroke-dasharray:none;marker-end:url(#Arrow1Send)"
       d="m 289.68821,97.768028 c 20.79523,0 57.36364,0 57.36364,0"
       id="path4600"
       inkscape:connector-curvature="0"
       sodipodi:nodetypes="cc" />
    <path
       sodipodi:type="arc"
       style="fill:#000000;fill-opacity:1;fill-rule:evenodd;stroke:#000000;stroke-width:1px;stroke-linecap:butt;stroke-linejoin:miter;stroke-opacity:1"
       id="path4602"
       sodipodi:cx="114.28571"
       sodipodi:cy="149.50504"
       sodipodi:rx="40"
       sodipodi:ry="40"
       d="m 154.28571,149.50504 a 40,40 0 1 1 -79.999997,0 40,40 0 1 1 79.999997,0 z"
       transform="matrix(0.32656497,0,0,0.32656497,331.11846,99.836381)" />
    <path
       sodipodi:nodetypes="cc"
       inkscape:connector-curvature="0"
       id="path4604"
       d="m 289.68821,149.1966 c 20.79523,0 57.36364,0 57.36364,0"
       style="fill:none;stroke:#000000;stroke-width:4.9492569;stroke-linecap:butt;stroke-linejoin:miter;stroke-miterlimit:4;stroke-opacity:1;stroke-dasharray:none;marker-end:url(#Arrow1Send)" />
  </g>
</svg>
